<svg xmlns="http://www.w3.org/2000/svg" width="32" height="32" viewBox="0 0 32 32" role="img" aria-label="Swan">
  <rect width="32" height="32" rx="7" fill="#cfe7c4"/>
  <path fill="#0b4540" d="M13.8 9.9c-2.3-1.2-5.8.6-6.1 3.3v3.2c0 .7.4 1.4 1 1.8l4.1 2.4c.5.3 1.1-.1 1.1-.7v-10Z"/>
  <path fill="#0b4540" d="M14 9.9 19.9 6c.7-.4 1.5-.4 2.2 0l6.7 4c.7.4.7 1.4 0 1.8l-3.2 1.9c-3.3 1.9-7.4 1.9-10.7-.1L14 13V9.9Z"/>
  <path fill="#0b4540" d="M18.1 15.2c0-.7.7-1.1 1.3-.8l4.8 2.9c.8.5 1.2 1.3 1.2 2.2v2.8c-.4 3.1-3.7 5-6.5 3.8-.5-.2-.8-.7-.8-1.2v-9.7Z"/>
  <path fill="#0b4540" d="m17.9 25.8-4.4 2.6c-.6.4-1.4.4-2 0l-7.2-4.2c-.6-.4-.6-1.3 0-1.7l3.4-2c3.2-1.8 7.1-1.8 10.2.1v5.2Z"/>
</svg>
